<svg xmlns="http://www.w3.org/2000/svg" xmlns:xlink="http://www.w3.org/1999/xlink" width="900" height="494.2"><rect width="900" height="494.2" rx="5" ry="5" class="a"/><svg y="0%" x="0%"><circle cx="20" cy="20" r="6" fill="#ff5f58"/><circle cx="40" cy="20" r="6" fill="#ffbd2e"/><circle cx="60" cy="20" r="6" fill="#18c132"/></svg><svg height="434.2" viewBox="0 0 86 43.42" width="860" x="15" xmlns="http://www.w3.org/2000/svg" xmlns:xlink="http://www.w3.org/1999/xlink" y="50"><style>@keyframes l{0%{transform:translateX(-86px)}12.3%{transform:translateX(-258px)}13.7%{transform:translateX(-344px)}17.6%{transform:translateX(-430px)}18.8%{transform:translateX(-516px)}23.2%{transform:translateX(-602px)}25.7%{transform:translateX(-688px)}28.8%{transform:translateX(-774px)}30.2%{transform:translateX(-860px)}34.7%{transform:translateX(-946px)}38.6%{transform:translateX(-1032px)}42.2%{transform:translateX(-1118px)}47.1%{transform:translateX(-1204px)}49.5%{transform:translateX(-1548px)}49.7%{transform:translateX(-1720px)}49.8%{transform:translateX(-1892px)}to{transform:translateX(-1978px)}}.a{fill:#282c34}.f,.g,.h,.i,.j{fill:#a5e075;white-space:pre}.g,.h,.i,.j{fill:#abb2bf}.h,.i,.j{fill:#c678dd}.i,.j{fill:#4f5666}.j{fill:#61afef}</style><g font-family="Monaco,Consolas,Menlo,'Bitstream Vera Sans Mono','Powerline Symbols',monospace" font-size="1.67"><defs><symbol id="1"><text y="1.67" class="f">~/Documents/development/self/nosock/docs/demo</text><text x="46.092" y="1.67" class="g">on</text><text x="49.098" y="1.67" class="h">main</text></symbol><symbol id="2"><text y="1.67" class="g">$</text><text x="2.004" y="1.67" class="g">pnpm</text><text x="7.014" y="1.67" class="i">build</text></symbol><symbol id="3"><text y="1.67" class="g">$</text><text x="2.004" y="1.67" class="g">pnpm</text><text x="7.014" y="1.67" class="g">build</text></symbol><symbol id="4"><text y="1.67" class="g">&gt;</text><text x="2.004" y="1.67" class="g">@</text><text x="4.008" y="1.67" class="g">build</text><text x="10.02" y="1.67" class="g">/Users/vanyauhalin/Documents/development/self/nosock/docs/demo</text></symbol><symbol id="5"><text y="1.67" class="g">&gt;</text><text x="2.004" y="1.67" class="g">nosock</text></symbol><symbol id="6"><text x="2.004" y="1.67" class="g">File:</text><text x="12.024" y="1.67" class="g">/Users/vanyauhalin/Documents/development/self/nosock/docs/demo/scripts.js</text></symbol><symbol id="7"><text x="2.004" y="1.67" class="g">Scripts:</text><text x="12.024" y="1.67" class="j">build-styles</text><text x="24.048" y="1.67" class="g">,</text><text x="26.052" y="1.67" class="j">build-scripts</text><text x="39.078" y="1.67" class="g">,</text><text x="41.082" y="1.67" class="j">build</text></symbol><symbol id="8"><text y="1.67" class="g">[10:51:26.149]</text><text x="21.042" y="1.67" class="g">Starting</text><text x="30.06" y="1.67" class="g">&quot;</text><text x="31.062" y="1.67" class="j">build</text><text x="36.072" y="1.67" class="g">&quot;</text><text x="38.076" y="1.67" class="g">...</text></symbol><symbol id="9"><text y="1.67" class="g">[10:51:26.149]</text><text x="21.042" y="1.67" class="g">Starting</text><text x="30.06" y="1.67" class="g">&quot;</text><text x="31.062" y="1.67" class="j">build-styles</text><text x="43.086" y="1.67" class="g">&quot;</text><text x="45.09" y="1.67" class="g">...</text></symbol><symbol id="10"><text y="1.67" class="g">[10:51:26.149]</text><text x="21.042" y="1.67" class="g">Starting</text><text x="30.06" y="1.67" class="g">&quot;</text><text x="31.062" y="1.67" class="j">build-scripts</text><text x="44.088" y="1.67" class="g">&quot;</text><text x="46.092" y="1.67" class="g">...</text></symbol><symbol id="11"><text y="1.67" class="g">[10:51:26.160]</text><text x="15.03" y="1.67" class="f">done</text><text x="21.042" y="1.67" class="g">Finished</text><text x="30.06" y="1.67" class="g">&quot;</text><text x="31.062" y="1.67" class="j">build-scripts</text><text x="44.088" y="1.67" class="g">&quot;</text><text x="46.092" y="1.67" class="g">after</text><text x="52.104" y="1.67" class="h">11.07ms</text></symbol><symbol id="12"><text y="1.67" class="g">[10:51:26.160]</text><text x="15.03" y="1.67" class="f">done</text><text x="21.042" y="1.67" class="g">Finished</text><text x="30.06" y="1.67" class="g">&quot;</text><text x="31.062" y="1.67" class="j">build-styles</text><text x="43.086" y="1.67" class="g">&quot;</text><text x="45.09" y="1.67" class="g">after</text><text x="51.102" y="1.67" class="h">11.53ms</text></symbol><symbol id="13"><text y="1.67" class="g">[10:51:26.160]</text><text x="15.03" y="1.67" class="f">done</text><text x="21.042" y="1.67" class="g">Finished</text><text x="30.06" y="1.67" class="g">&quot;</text><text x="31.062" y="1.67" class="j">build</text><text x="36.072" y="1.67" class="g">&quot;</text><text x="38.076" y="1.67" class="g">after</text><text x="44.088" y="1.67" class="h">11.70ms</text></symbol><symbol id="14"><text x="2.004" y="1.67" class="g">Resolved:</text><text x="12.024" y="1.67" class="f">build-styles</text><text x="24.048" y="1.67" class="g">,</text><text x="26.052" y="1.67" class="f">build-scripts</text><text x="39.078" y="1.67" class="g">,</text><text x="41.082" y="1.67" class="f">build</text></symbol><symbol id="15"><text x="2.004" y="1.67" class="g">Duration:</text><text x="12.024" y="1.67" class="g">12.29ms</text></symbol><symbol id="a"><path fill="transparent" d="M0 0h86v21H0z"/></symbol></defs><path class="a" d="M0 0h86v43.42H0z"/><g style="animation-duration:5.143255s;animation-iteration-count:infinite;animation-name:l;animation-timing-function:steps(1,end)"><svg width="2064"><svg><use xlink:href="#a"/></svg><svg x="86"><use xlink:href="#a"/><use xlink:href="#1"/><text y="3.841" class="g">$</text></svg><svg x="172"><use xlink:href="#a"/><use xlink:href="#1"/><text y="3.841" class="g">$</text><text x="2.004" y="3.841" class="g">p</text></svg><svg x="258"><use xlink:href="#a"/><use xlink:href="#1"/><text y="3.841" class="g">$</text><text x="2.004" y="3.841" class="g">p</text><text x="3.006" y="3.841" class="i">npm</text><text x="7.014" y="3.841" class="i">build</text></svg><svg x="344"><use xlink:href="#a"/><use xlink:href="#1"/><text y="3.841" class="g">$</text><text x="2.004" y="3.841" class="g">pn</text><text x="4.008" y="3.841" class="i">pm</text><text x="7.014" y="3.841" class="i">build</text></svg><svg x="430"><use xlink:href="#a"/><use xlink:href="#1"/><text y="3.841" class="g">$</text><text x="2.004" y="3.841" class="g">pnp</text><text x="5.01" y="3.841" class="i">m</text><text x="7.014" y="3.841" class="i">build</text></svg><svg x="516"><use xlink:href="#a"/><use xlink:href="#1"/><use xlink:href="#2" y="2.171"/></svg><svg x="602"><use xlink:href="#a"/><use xlink:href="#1"/><use xlink:href="#2" y="2.171"/></svg><svg x="688"><use xlink:href="#a"/><use xlink:href="#1"/><text y="3.841" class="g">$</text><text x="2.004" y="3.841" class="g">pnpm</text><text x="7.014" y="3.841" class="g">b</text><text x="8.016" y="3.841" class="i">uild</text></svg><svg x="774"><use xlink:href="#a"/><use xlink:href="#1"/><text y="3.841" class="g">$</text><text x="2.004" y="3.841" class="g">pnpm</text><text x="7.014" y="3.841" class="g">bu</text><text x="9.018" y="3.841" class="i">ild</text></svg><svg x="860"><use xlink:href="#a"/><use xlink:href="#1"/><text y="3.841" class="g">$</text><text x="2.004" y="3.841" class="g">pnpm</text><text x="7.014" y="3.841" class="g">bui</text><text x="10.02" y="3.841" class="i">ld</text></svg><svg x="946"><use xlink:href="#a"/><use xlink:href="#1"/><text y="3.841" class="g">$</text><text x="2.004" y="3.841" class="g">pnpm</text><text x="7.014" y="3.841" class="g">buil</text><text x="11.022" y="3.841" class="i">d</text></svg><svg x="1032"><use xlink:href="#a"/><use xlink:href="#1"/><use xlink:href="#3" y="2.171"/></svg><svg x="1118"><use xlink:href="#a"/><use xlink:href="#1"/><use xlink:href="#3" y="2.171"/></svg><svg x="1204"><use xlink:href="#a"/><use xlink:href="#1"/><use xlink:href="#3" y="2.171"/><use xlink:href="#4" y="6.513"/><use xlink:href="#5" y="8.684"/></svg><svg x="1290"><use xlink:href="#a"/><use xlink:href="#1"/><use xlink:href="#3" y="2.171"/><use xlink:href="#4" y="6.513"/><use xlink:href="#5" y="8.684"/><use xlink:href="#6" y="15.197"/></svg><svg x="1376"><use xlink:href="#a"/><use xlink:href="#1"/><use xlink:href="#3" y="2.171"/><use xlink:href="#4" y="6.513"/><use xlink:href="#5" y="8.684"/><use xlink:href="#6" y="15.197"/><use xlink:href="#7" y="17.368"/></svg><svg x="1462"><use xlink:href="#a"/><use xlink:href="#1"/><use xlink:href="#3" y="2.171"/><use xlink:href="#4" y="6.513"/><use xlink:href="#5" y="8.684"/><use xlink:href="#6" y="15.197"/><use xlink:href="#7" y="17.368"/><use xlink:href="#8" y="21.71"/></svg><svg x="1548"><use xlink:href="#a"/><use xlink:href="#1"/><use xlink:href="#3" y="2.171"/><use xlink:href="#4" y="6.513"/><use xlink:href="#5" y="8.684"/><use xlink:href="#6" y="15.197"/><use xlink:href="#7" y="17.368"/><use xlink:href="#8" y="21.71"/><use xlink:href="#9" y="23.881"/><use xlink:href="#10" y="26.052"/></svg><svg x="1634"><use xlink:href="#a"/><use xlink:href="#1"/><use xlink:href="#3" y="2.171"/><use xlink:href="#4" y="6.513"/><use xlink:href="#5" y="8.684"/><use xlink:href="#6" y="15.197"/><use xlink:href="#7" y="17.368"/><use xlink:href="#8" y="21.71"/><use xlink:href="#9" y="23.881"/><use xlink:href="#10" y="26.052"/><use xlink:href="#11" y="28.223"/></svg><svg x="1720"><use xlink:href="#a"/><use xlink:href="#1"/><use xlink:href="#3" y="2.171"/><use xlink:href="#4" y="6.513"/><use xlink:href="#5" y="8.684"/><use xlink:href="#6" y="15.197"/><use xlink:href="#7" y="17.368"/><use xlink:href="#8" y="21.71"/><use xlink:href="#9" y="23.881"/><use xlink:href="#10" y="26.052"/><use xlink:href="#11" y="28.223"/><use xlink:href="#12" y="30.394"/></svg><svg x="1806"><use xlink:href="#a"/><use xlink:href="#1"/><use xlink:href="#3" y="2.171"/><use xlink:href="#4" y="6.513"/><use xlink:href="#5" y="8.684"/><use xlink:href="#6" y="15.197"/><use xlink:href="#7" y="17.368"/><use xlink:href="#8" y="21.71"/><use xlink:href="#9" y="23.881"/><use xlink:href="#10" y="26.052"/><use xlink:href="#11" y="28.223"/><use xlink:href="#12" y="30.394"/><use xlink:href="#13" y="32.565"/></svg><svg x="1892"><use xlink:href="#a"/><use xlink:href="#1"/><use xlink:href="#3" y="2.171"/><use xlink:href="#4" y="6.513"/><use xlink:href="#5" y="8.684"/><use xlink:href="#6" y="15.197"/><use xlink:href="#7" y="17.368"/><use xlink:href="#8" y="21.71"/><use xlink:href="#9" y="23.881"/><use xlink:href="#10" y="26.052"/><use xlink:href="#11" y="28.223"/><use xlink:href="#12" y="30.394"/><use xlink:href="#13" y="32.565"/><use xlink:href="#14" y="36.907"/><use xlink:href="#15" y="39.078"/></svg><svg x="1978"><use xlink:href="#a"/><use xlink:href="#1"/><use xlink:href="#3" y="2.171"/><use xlink:href="#4" y="6.513"/><use xlink:href="#5" y="8.684"/><use xlink:href="#6" y="15.197"/><use xlink:href="#7" y="17.368"/><use xlink:href="#8" y="21.71"/><use xlink:href="#9" y="23.881"/><use xlink:href="#10" y="26.052"/><use xlink:href="#11" y="28.223"/><use xlink:href="#12" y="30.394"/><use xlink:href="#13" y="32.565"/><use xlink:href="#14" y="36.907"/><use xlink:href="#15" y="39.078"/></svg></svg></g></g></svg></svg>
