<svg xmlns="http://www.w3.org/2000/svg" xmlns:xlink="http://www.w3.org/1999/xlink" width="900" height="494.2"><rect width="900" height="494.2" rx="5" ry="5" class="a"/><svg y="0%" x="0%"><circle cx="20" cy="20" r="6" fill="#ff5f58"/><circle cx="40" cy="20" r="6" fill="#ffbd2e"/><circle cx="60" cy="20" r="6" fill="#18c132"/></svg><svg height="434.2" viewBox="0 0 86 43.42" width="860" x="15" xmlns="http://www.w3.org/2000/svg" xmlns:xlink="http://www.w3.org/1999/xlink" y="50"><style>@keyframes k{0%{transform:translateX(-86px)}9.9%{transform:translateX(-172px)}11.4%{transform:translateX(-258px)}13%{transform:translateX(-344px)}14.6%{transform:translateX(-430px)}16.2%{transform:translateX(-516px)}17.8%{transform:translateX(-602px)}19.3%{transform:translateX(-688px)}20.9%{transform:translateX(-774px)}22.5%{transform:translateX(-860px)}24.1%{transform:translateX(-946px)}39.3%{transform:translateX(-1032px)}44.3%{transform:translateX(-1118px)}47.5%{transform:translateX(-1462px)}47.7%{transform:translateX(-1548px)}48%{transform:translateX(-1720px)}to{transform:translateX(-1806px)}}.a{fill:#282c34}.f,.g,.h,.i{fill:#a5e075;white-space:pre}.g,.h,.i{fill:#abb2bf}.h,.i{fill:#c678dd}.i{fill:#61afef}</style><g font-family="Monaco,Consolas,Menlo,'Bitstream Vera Sans Mono','Powerline Symbols',monospace" font-size="1.67"><defs><symbol id="1"><text y="1.67" class="f">~/Documents/development/self/nosock/docs/demo</text><text x="46.092" y="1.67" class="g">on</text><text x="49.098" y="1.67" class="h">main</text></symbol><symbol id="2"><text y="1.67" class="g">$</text><text x="2.004" y="1.67" class="g">pnpm</text></symbol><symbol id="3"><text y="1.67" class="g">$</text><text x="2.004" y="1.67" class="g">pnpm</text><text x="7.014" y="1.67" class="g">build</text></symbol><symbol id="4"><text y="1.67" class="g">&gt;</text><text x="2.004" y="1.67" class="g">@</text><text x="4.008" y="1.67" class="g">build</text><text x="10.02" y="1.67" class="g">/Users/vanyauhalin/Documents/development/self/nosock/docs/demo</text></symbol><symbol id="5"><text y="1.67" class="g">&gt;</text><text x="2.004" y="1.67" class="g">nosock</text></symbol><symbol id="6"><text x="2.004" y="1.67" class="g">File:</text><text x="12.024" y="1.67" class="g">/Users/vanyauhalin/Documents/development/self/nosock/docs/demo/scripts.js</text></symbol><symbol id="7"><text x="2.004" y="1.67" class="g">Scripts:</text><text x="12.024" y="1.67" class="i">build-styles</text><text x="24.048" y="1.67" class="g">,</text><text x="26.052" y="1.67" class="i">build-scripts</text><text x="39.078" y="1.67" class="g">,</text><text x="41.082" y="1.67" class="i">build</text></symbol><symbol id="8"><text y="1.67" class="g">[13:48:43.647]</text><text x="21.042" y="1.67" class="g">Running</text><text x="29.058" y="1.67" class="g">&quot;</text><text x="30.06" y="1.67" class="i">build</text><text x="35.07" y="1.67" class="g">&quot;</text><text x="37.074" y="1.67" class="g">...</text></symbol><symbol id="9"><text y="1.67" class="g">[13:48:43.647]</text><text x="21.042" y="1.67" class="g">Running</text><text x="29.058" y="1.67" class="g">&quot;</text><text x="30.06" y="1.67" class="i">build-styles</text><text x="42.084" y="1.67" class="g">&quot;</text><text x="44.088" y="1.67" class="g">...</text></symbol><symbol id="10"><text y="1.67" class="g">[13:48:43.647]</text><text x="21.042" y="1.67" class="g">Running</text><text x="29.058" y="1.67" class="g">&quot;</text><text x="30.06" y="1.67" class="i">build-scripts</text><text x="43.086" y="1.67" class="g">&quot;</text><text x="45.09" y="1.67" class="g">...</text></symbol><symbol id="11"><text y="1.67" class="g">[13:48:43.658]</text><text x="15.03" y="1.67" class="f">done</text><text x="21.042" y="1.67" class="g">Finished</text><text x="30.06" y="1.67" class="g">&quot;</text><text x="31.062" y="1.67" class="i">build-styles</text><text x="43.086" y="1.67" class="g">&quot;</text><text x="45.09" y="1.67" class="g">after</text><text x="51.102" y="1.67" class="h">10.49ms</text></symbol><symbol id="12"><text y="1.67" class="g">[13:48:43.673]</text><text x="15.03" y="1.67" class="f">done</text><text x="21.042" y="1.67" class="g">Finished</text><text x="30.06" y="1.67" class="g">&quot;</text><text x="31.062" y="1.67" class="i">build-scripts</text><text x="44.088" y="1.67" class="g">&quot;</text><text x="46.092" y="1.67" class="g">after</text><text x="52.104" y="1.67" class="h">25.23ms</text></symbol><symbol id="13"><text y="1.67" class="g">[13:48:43.673]</text><text x="15.03" y="1.67" class="f">done</text><text x="21.042" y="1.67" class="g">Finished</text><text x="30.06" y="1.67" class="g">&quot;</text><text x="31.062" y="1.67" class="i">build</text><text x="36.072" y="1.67" class="g">&quot;</text><text x="38.076" y="1.67" class="g">after</text><text x="44.088" y="1.67" class="h">25.52ms</text></symbol><symbol id="14"><text x="2.004" y="1.67" class="g">Resolved:</text><text x="12.024" y="1.67" class="f">build-styles</text><text x="24.048" y="1.67" class="g">,</text><text x="26.052" y="1.67" class="f">build-scripts</text><text x="39.078" y="1.67" class="g">,</text><text x="41.082" y="1.67" class="f">build</text></symbol><symbol id="15"><text x="2.004" y="1.67" class="g">Duration:</text><text x="12.024" y="1.67" class="g">26.11ms</text></symbol><symbol id="a"><path fill="transparent" d="M0 0h86v21H0z"/></symbol></defs><path class="a" d="M0 0h86v43.42H0z"/><g style="animation-duration:5.066582s;animation-iteration-count:infinite;animation-name:k;animation-timing-function:steps(1,end)"><svg width="1892"><svg><use xlink:href="#a"/></svg><svg x="86"><use xlink:href="#a"/><use xlink:href="#1"/><text y="3.841" class="g">$</text></svg><svg x="172"><use xlink:href="#a"/><use xlink:href="#1"/><text y="3.841" class="g">$</text><text x="2.004" y="3.841" class="g">p</text></svg><svg x="258"><use xlink:href="#a"/><use xlink:href="#1"/><text y="3.841" class="g">$</text><text x="2.004" y="3.841" class="g">pn</text></svg><svg x="344"><use xlink:href="#a"/><use xlink:href="#1"/><text y="3.841" class="g">$</text><text x="2.004" y="3.841" class="g">pnp</text></svg><svg x="430"><use xlink:href="#a"/><use xlink:href="#1"/><use xlink:href="#2" y="2.171"/></svg><svg x="516"><use xlink:href="#a"/><use xlink:href="#1"/><use xlink:href="#2" y="2.171"/></svg><svg x="602"><use xlink:href="#a"/><use xlink:href="#1"/><text y="3.841" class="g">$</text><text x="2.004" y="3.841" class="g">pnpm</text><text x="7.014" y="3.841" class="g">b</text></svg><svg x="688"><use xlink:href="#a"/><use xlink:href="#1"/><text y="3.841" class="g">$</text><text x="2.004" y="3.841" class="g">pnpm</text><text x="7.014" y="3.841" class="g">bu</text></svg><svg x="774"><use xlink:href="#a"/><use xlink:href="#1"/><text y="3.841" class="g">$</text><text x="2.004" y="3.841" class="g">pnpm</text><text x="7.014" y="3.841" class="g">bui</text></svg><svg x="860"><use xlink:href="#a"/><use xlink:href="#1"/><text y="3.841" class="g">$</text><text x="2.004" y="3.841" class="g">pnpm</text><text x="7.014" y="3.841" class="g">buil</text></svg><svg x="946"><use xlink:href="#a"/><use xlink:href="#1"/><use xlink:href="#3" y="2.171"/></svg><svg x="1032"><use xlink:href="#a"/><use xlink:href="#1"/><use xlink:href="#3" y="2.171"/></svg><svg x="1118"><use xlink:href="#a"/><use xlink:href="#1"/><use xlink:href="#3" y="2.171"/><use xlink:href="#4" y="6.513"/><use xlink:href="#5" y="8.684"/></svg><svg x="1204"><use xlink:href="#a"/><use xlink:href="#1"/><use xlink:href="#3" y="2.171"/><use xlink:href="#4" y="6.513"/><use xlink:href="#5" y="8.684"/><use xlink:href="#6" y="15.197"/></svg><svg x="1290"><use xlink:href="#a"/><use xlink:href="#1"/><use xlink:href="#3" y="2.171"/><use xlink:href="#4" y="6.513"/><use xlink:href="#5" y="8.684"/><use xlink:href="#6" y="15.197"/><use xlink:href="#7" y="17.368"/></svg><svg x="1376"><use xlink:href="#a"/><use xlink:href="#1"/><use xlink:href="#3" y="2.171"/><use xlink:href="#4" y="6.513"/><use xlink:href="#5" y="8.684"/><use xlink:href="#6" y="15.197"/><use xlink:href="#7" y="17.368"/><use xlink:href="#8" y="21.71"/></svg><svg x="1462"><use xlink:href="#a"/><use xlink:href="#1"/><use xlink:href="#3" y="2.171"/><use xlink:href="#4" y="6.513"/><use xlink:href="#5" y="8.684"/><use xlink:href="#6" y="15.197"/><use xlink:href="#7" y="17.368"/><use xlink:href="#8" y="21.71"/><use xlink:href="#9" y="23.881"/><use xlink:href="#10" y="26.052"/></svg><svg x="1548"><use xlink:href="#a"/><use xlink:href="#1"/><use xlink:href="#3" y="2.171"/><use xlink:href="#4" y="6.513"/><use xlink:href="#5" y="8.684"/><use xlink:href="#6" y="15.197"/><use xlink:href="#7" y="17.368"/><use xlink:href="#8" y="21.71"/><use xlink:href="#9" y="23.881"/><use xlink:href="#10" y="26.052"/><use xlink:href="#11" y="28.223"/></svg><svg x="1634"><use xlink:href="#a"/><use xlink:href="#1"/><use xlink:href="#3" y="2.171"/><use xlink:href="#4" y="6.513"/><use xlink:href="#5" y="8.684"/><use xlink:href="#6" y="15.197"/><use xlink:href="#7" y="17.368"/><use xlink:href="#8" y="21.71"/><use xlink:href="#9" y="23.881"/><use xlink:href="#10" y="26.052"/><use xlink:href="#11" y="28.223"/><use xlink:href="#12" y="30.394"/><use xlink:href="#13" y="32.565"/></svg><svg x="1720"><use xlink:href="#a"/><use xlink:href="#1"/><use xlink:href="#3" y="2.171"/><use xlink:href="#4" y="6.513"/><use xlink:href="#5" y="8.684"/><use xlink:href="#6" y="15.197"/><use xlink:href="#7" y="17.368"/><use xlink:href="#8" y="21.71"/><use xlink:href="#9" y="23.881"/><use xlink:href="#10" y="26.052"/><use xlink:href="#11" y="28.223"/><use xlink:href="#12" y="30.394"/><use xlink:href="#13" y="32.565"/><use xlink:href="#14" y="36.907"/><use xlink:href="#15" y="39.078"/></svg><svg x="1806"><use xlink:href="#a"/><use xlink:href="#1"/><use xlink:href="#3" y="2.171"/><use xlink:href="#4" y="6.513"/><use xlink:href="#5" y="8.684"/><use xlink:href="#6" y="15.197"/><use xlink:href="#7" y="17.368"/><use xlink:href="#8" y="21.71"/><use xlink:href="#9" y="23.881"/><use xlink:href="#10" y="26.052"/><use xlink:href="#11" y="28.223"/><use xlink:href="#12" y="30.394"/><use xlink:href="#13" y="32.565"/><use xlink:href="#14" y="36.907"/><use xlink:href="#15" y="39.078"/></svg></svg></g></g></svg></svg>
