<svg xmlns="http://www.w3.org/2000/svg" viewBox="0 0 24 24">
  <path d="M15.981255 10.894089c-.146675.585961-.08491 1.17192.181416 1.754076l-.312652.163613c-1.29307.673473-3.064765 1.598073-4.95612 3.367368-.984276.9246-1.6944987 1.636123-2.2117262 2.157399-.8375997.84089-1.2544695 1.263238-1.7562573 1.499144-.5017879.235907-1.154112.319614-2.4433206.483228l-.3358119.04186c-.2084349.02663-.40915.04186-.5944256.04946-.0038687-.410936.1852756-.799041.5133676-1.050166.5751261-.445171 1.6983587-1.384991 3.7672684-3.310289.2701935-.251127.4631888-.578351.5481066-.939819.7295224-3.074392 1.891355-5.2127669 2.358402-5.985169.131238-.2168813.216156-.4565922.250893-.7039132l.335813-2.4275492V2.2302498h6.573421c-.0078 1.2480189-.01545 2.4922332-.02316 3.7402522l-.0078.3957134c-.01157.6468391.320375 1.2556289.872341 1.601878l.02701.019026.02701.01522c-.941799.4489821-2.454882 1.4496801-2.813854 2.8917506Z" fill="#fff"/>
  <path d="M18.060663 13.787324c-1.304218.685434-2.972971 1.633885-4.742982 3.291679-1.036894.968373-1.778111 1.713584-2.320862 2.25954-.878927.880703-1.3163678 1.323046-1.8429156 1.570122-.5265478.247076-1.2110599.334747-2.5638829.506105l-.3523821.04385c-1.3892763.175345-2.268206-.04781-2.6165378-.669494.1741658-.01197.3523819-.02791.5386989-.0518l.3523821-.04385c2.8555094-.358657 2.9000636-.382567 4.7672832-2.25157.5711019-.573853 1.2799162-1.283198 2.3046592-2.247585 1.923925-1.797272 3.665584-2.705872 5.067011-3.431156l.336181-.175345c.263273.402494.619707.801002 1.073347 1.199511z" fill="#fff"/>
  <path d="M20.244264 11.458463c0 1.249054-.855127 1.722702-2.409906 2.532486-1.224387-1.012231-1.725803-2.016822-1.484812-2.983215.209895-.840343.925093-1.5049775 1.492586-1.9136895.404243-.2979396.847355-.542403 1.313789-.7333898.567493.4774673 1.088343 1.2643334 1.088343 3.0978083z" fill="#ff1029"/>
  <path d="M19.228652 7.7810168c-.127055-.093423-.246637-.1718984-.358744-.2428999l-.02616-.018685c-.373691-.2391625-.597906-.6539608-.586695-1.0949174l.0075-.3923767v-.00374l-.026185-3.8938686V2h-7.436473v4.0097162l-.321375 2.3430495c-.02242.1718984-.08221.3363229-.168161.4857997-.4633786.7847534-1.6218241 2.9409566-2.3467867 6.0351276-.056054.246637-.1868461.467115-.3699552.64275-1.988042 1.879672-3.0605383 2.787743-3.6098657 3.217489-.6203289.489537-.8669657 1.307923-.6128551 2.032885.1831092.515695.6352766 1.06876 1.7339314 1.203289.1644245.01868.3437967.02989.5381166.02989.2017937 0 .4035875-.01121.6053812-.02989.074738-.0075.1494769-.01495.2242153-.02616l.3251121-.04111c2.6382662-.336323 2.6793724-.358744 4.3983561-2.11136.526906-.538117 1.180867-1.203289 2.126308-2.107624 1.775037-1.685351 3.381913-2.537369 4.674888-3.217489 1.584455-.83707 2.727952-1.442451 2.727952-3.030642-.0075-2.2869961-.803438-3.1539618-1.498505-3.6547092zM17.692778 4.79148h-1.733932V2.5605382h1.718984Zm-2.290733-2.2309418V4.79148h-1.715247V2.5605382Zm-2.279522 0V4.79148h-1.76009V2.5605382ZM4.333285 19.174889c.5568013-.43722 1.6442453-1.360239 3.6472349-3.251121.2615845-.246637.4484306-.568012.5306428-.92302.7062781-3.019432 1.8310913-5.1195816 2.2832583-5.8781766.127056-.2130045.209268-.4484305.2429-.6913304l.325112-2.3841556v-.6950673h6.334082l.0037.6726458-.0075.3886398c-.01121.6352766.310164 1.2331839.844544 1.5732437l.02616.018685.02616.014948c-.904335.4372198-2.369208 1.4162931-2.716742 2.8325866-.142003.575486-.08221 1.150972.175635 1.72272l-.30269.160688c-1.251869.661435-2.967115 1.569507-4.798207 3.307175-.9529146.908072-1.6405081 1.606876-2.1412555 2.118834-.8109119.82586-1.2144993 1.240658-1.7002991 1.472347-.4857997.231689-1.1173394.313902-2.365471.474589l-.3251121.04111c-.2017937.02616-.3961136.04111-.5754858.04858-.00747-.396113.1756353-.777279.4932735-1.023916zm8.602392-1.898356c-.956652.908072-1.640508 1.606876-2.141256 2.118834-.8109114.82586-1.2144989 1.240658-1.7002986 1.472347-.4857997.231689-1.1173394.313901-2.365471.474589l-.3251121.04111c-1.2817639.164425-2.0926758-.04484-2.414051-.627803.1606876-.01121.3251121-.02616.5007474-.04858l.3251122-.04111c2.6345293-.336322 2.6756354-.358744 4.398356-2.11136.5269058-.538117 1.1808671-1.203289 2.1263081-2.107623 1.775037-1.685352 3.381913-2.53737 4.674888-3.217489l.310165-.164425c.246636.377429.575485.751121.994021 1.121076-1.210763.650225-2.750374 1.539612-4.383409 3.090434zm4.906577-3.366966c-1.17713-.990284-1.659192-1.973094-1.427503-2.918535.201793-.822123.889387-1.4723469 1.434977-1.8721975.38864-.2914798.814649-.5306428 1.26308-.7174888.549327.4671151 1.046337 1.2369208 1.046337 3.0306433 0 1.221973-.822122 1.685351-2.316891 2.477578z"/>
  <path d="m4.3743912 18.857251.2204783-.0299c.029895.209268.026159.209268-.2204783.317639z"/>
  <path d="M4.3743912 19.432736c.029895.01121.056054.0299.078475.04858.142003.168162.1307922.205531-.078475.336323z"/>
  <path d="m18.227156 5.9573946-.310164.1831092c-.119582-.1270554.164424-.2092676.02242-.3213753-.112107-.00374-.2429-.033632-.366218-.00747-.112108.022422-.216741.1008969-.317638.1532138-.06353-.1008969-.119582-.1943199-.183109-.2802691-.05232-.071001-.115845-.1345292-.198057-.2279522.130792.00747.224215.041106.298953.014948.156951-.059791.261585-.052317.366219.09716.03363.04858.138266.044843.250373.074739l-.09342-.2914799c.209268.026159.313902.1307923.343797.2952168.0299.1270553.07848.235426.186846.3101644z"/>
  <path d="M18.238368 7.014948c-.05232-.00374-.127055.052317-.14574-.052317-.01121-.059791-.02989-.1158446-.05605-.1681615-.01121-.018685-.05605-.018685-.08969-.029895-.134529.1270553-.04484.2989537-.08595.4484305-.09342.059791-.153214.014948-.171898-.071002-.01121-.056054.01868-.1233184.02989-.1831091.03363-.1644246-.05605-.2615845-.220478-.3437968.05605-.082212.10837-.1569506.15695-.2316891.130793-.022422.104634.093423.164425.1532138l.426009.037369c-.04484.1718984-.175635.3064275-.01495.4446936z"/>
  <path d="M10.233883 15.837818c-.3400595.138267-.4671148-.149476-.6801193-.239162.026158-.168162.1233184-.257848.2578475-.343797.2204788.130792.2541108.392376.4222718.582959z"/>
  <path d="m13.679324 6.3086699.246637-.1644245c.09342.082212.168162.1606876.04111.2914798-.05605.059791-.08969.1532138-.01868.2130045.190583.1569507-.03363.2428999-.03737.3662183-.0075-.1868461-.186846-.2017938-.287743-.3101645.02242-.1345291.04484-.2727952.06726-.4110613z"/>
  <path d="M12.393824 10.52018c.08969-.257848-.123319-.179372-.201794-.2429.02242-.01868.04484-.05232.05979-.04858.171898.02616.343796.03737.511958-.03737.05605-.02616.119581-.03363.179372-.01868.05979.02242.104634.06726.127055.123319.0075.02989-.06353.10837-.112107.119581-.168162.04111-.336323.06353-.564275.104634z"/>
  <path d="m10.166619 12.347534.213004-.418535c.130792-.01868.175636.06353.190583.130792.02616.134529.04111.272796.04111.411062 0 .01868-.08221.06726-.10837.05605-.108371-.04484-.209268-.10837-.336323-.179372z"/>
  <path d="M14.434183 8.5919286c-.02242-.1083707-.05605-.2130045.07474-.284006.123318-.067265.2429-.1494768.373692-.00374-.08969.1868461-.179372.3736921-.295217.6240658-.02242-.1046338-.04858-.1532137-.03363-.1831091.06727-.1494768-.03737-.1494768-.130792-.1681614z"/>
  <path d="m15.293674 8.5994025-.250373-.2279522.306427-.2055307c.127055.059791.261585.1270554.302691.3139014l-.168162.1158446.0075.014948c-.071-.093423-.142003-.067265-.213004 0z"/>
  <path d="M11.100849 13.573244c0-.127055-.02242-.201793.0037-.239163.09716-.130792.02616-.201793-.149477-.265321.261585-.09342.407324-.01868.519432.119581.02616.0299.01121.13453-.02242.164425-.08221.071-.179373.115845-.351271.220478z"/>
  <path d="M14.979773 9.6868465c.168161.033632.246637.1532138.328849.3363225l-.59417-.063527c-.01868-.2316891.213004-.1681614.276532-.284006z"/>
  <path d="M7.4797725 17.28027c.1606876.02242.239163.138266.2690583.280269.011211.04484-.033632.112108-.074738.149477-.037369.02242-.085949.02616-.1270553.0075-.1345292-.07848-.1569507-.239163-.067265-.43722z"/>
  <path d="m6.8594436 18.864724-.3811659-.02989c-.044843-.168161-.011211-.295217.1382661-.418535.1083707.112108.2653214.186846.2428998.44843z"/>
  <path d="M6.3250639 19.238417c.082212.336322.082212.336322.029895.553064-.1494768-.05605-.1793722-.209268-.2653214-.306428-.029895-.03363-.029895-.142003-.00374-.168161.052317-.04484.1345291-.04858.2391629-.07848z"/>
  <path d="M13.888592 11.585202c-.04858-.0075-.09342-.01495-.138266-.02989-.08969-.03363-.09342-.112108-.07474-.186846.02242-.08969.08595-.115845.171898-.08969.05605.01868.108371.03737.160688.05605-.0037.03363-.01121.06726-.02242.100897-.02989.05232-.06353.100896-.09716.149476z"/>
  <path d="m14.127755 6.3423022.276532-.093423c.05605.074738.104634.1494768.149477.2316891.01495.029895-.01495.09716-.04484.1233184-.0299.026158-.100897.029895-.127055.011211-.07848-.063528-.14574-.1494768-.254111-.2727952z"/>
  <path d="m12.016395 10.030643-.272796-.2092673c.02242-.014948.04858-.022422.071-.029895.08595.00374.171898.071001.265321.00374.01495-.00747.09342.033632.09716.059791.0037.037369-.02616.082212-.05232.1158446-.01868.018685-.05232.029896-.10837.059791z"/>
  <path d="M12.894571 6.8355758c-.227952-.037369-.418535-.1083707-.366218-.3699552.179372-.037369.134529.1083707.179372.1718984.05979.071001.119581.138266.186846.1980568z"/>
  <path d="M15.260042 6.7533635c.04111.059791.08221.1233184.142003.2130045l-.343797.063528c-.07848-.108371-.08595-.254111-.01868-.3736924l-.01121.014948.246637.089686z"/>
  <path d="M12.248084 6.2264577c-.04111.1008968-.06727.2204783-.220479.1532137-.071-.029895-.138266-.071002-.209267-.1083707 0-.074738.02989-.1980568.104634-.1158445.112107.1233183.235426.044843.343796.085949z"/>
  <path d="M9.9722988 10.187594c.1345292-.06727.2914802-.071.4334832-.01495-.01868.149477-.115845.142003-.205531.14574-.100897.0075-.183109-.01121-.2279522-.130792z"/>
  <path d="m17.857202 7.9080721-.2429-.026158c.02616-.1083708.04858-.2055307.07474-.3251122.164424.071002.179372.1831092.168161.3512706z"/>
  <path d="M12.685303 7.5717492c.01869-.2167414.119582-.3251121.153214-.4932736l.201794.2354261z"/>
  <path d="M15.260042 11.704784c.09342-.09716.175635-.216742.351271-.115845-.231689.216742-.231689.216742-.351271.115845z"/>
  <path d="m17.113555 6.966368-.280269.067265c.04111-.1270553.07474-.239163.115844-.377429.119582.078475.149477.1718983.164425.310164z"/>
  <path d="M11.65765 10.979821c.03737.14574.05979.231689.100897.384903l-.298954-.220478z"/>
  <path d="M16.687546 5.359492c.127055.011211.130792.074738.127055.1382661-.0037.074738-.05605.1270553-.119581.1008968-.05232-.026158-.08595-.078475-.09342-.1345291 0-.037369.06353-.078475.08595-.1046338z"/>
  <path d="M10.86916 12.463379c-.06727-.134529-.104634-.183109-.119582-.2429-.01121-.03737-.0037-.108371.01495-.115845.07474-.0299.115845.02616.127055.08969.0075.05979-.01121.119582-.02242.269059z"/>
  <path d="M16.470804 6.9962634c.05605-.1121077.07848-.1793722.119582-.2316891.01869-.022422.07474-.014948.112108-.018685.0037.041106.02616.1046338.0075.1195814-.05605.044843-.123318.071002-.239163.1307923z"/>
  <path d="M11.829549 7.298954c.01121-.1046338.01121-.1457399.02242-.1868461.01121-.041106.02616-.074738.06727-.1831091.03363.1121076.071.1644245.05605.2055307-.01495.044843-.06726.078475-.145739.1644245z"/>
  <path d="M16.631492 7.9304936c.01121.1270553-.03737.2092676-.175635.190583-.02616-.00374-.06727-.074738-.05979-.1046338.03737-.1457399.138266-.1345291.2429-.078475z"/>
  <path d="m16.799653 6.1405085.220479.2017937c-.19432.056054-.19432.056054-.220479-.2017937z"/>
  <path d="M18.294422 7.6390138c-.04484.056054-.06353.1008969-.100897.1195815-.071.033632-.115845-.011211-.134529-.078475-.01869-.067265 0-.1382661.07474-.1382661.04484 0 .09342.056054.160688.09716z"/>
  <path d="M17.375139 7.8744398c-.01495 0-.03363.011211-.03737.00374-.04858-.04858-.09716-.1008968-.138266-.1569506-.0037-.00374.02989-.04858.05232-.052317.09342-.014948.142003.033632.149477.1195814.0037.029895-.01869.059791-.02616.085949z"/>
  <path d="M9.5537637 14.892377c.041106-.0075.082212-.01868.1270553-.01868h.1307922c.037369.07848.018685.130792-.059791.138266-.078475.0075-.2017937.05232-.1980568-.119582z"/>
  <path d="M12.259294 6.2451423c-.0075-.014948-.01495-.026159-.01495-.044843 0-.044843.0037-.085949.0075-.1307922.04111.00374.08969 0 .119581.018685.04858.033632.09716.074738.138266.1195814l-.0075-.011211c-.01495.074738-.05979.1046338-.134529.074738-.04111-.014948-.08595-.029895-.127055-.04858z"/>
  <path d="M6.6202807 17.934231c.00747-.119581-.1980568-.183109-.085949-.328849.011211-.01121.026158-.01495.041106-.01121.1532138.09342.052317.220479.041106.332586z"/>
  <path d="M15.487994 8.5994025c-.01495.044843-.02989.089686-.04858.1345291-.03363.067265-.071.1756353-.15695.1382661-.142003-.063528-.01868-.1494768.01121-.2242152.0037-.014948.0037-.029895.0037-.044843l-.01121.014948h.213005z"/>
  <path d="M14.363181 10.183857c.01495.04111.04484.08595.03737.123318-.0075.03737-.04484.071-.071.104634-.02242-.02989-.04111-.06353-.05232-.09716 0-.04111.0037-.08595.01495-.127055z"/>
  <path d="m11.168114 9.6270558.07848.059791c-.03363.018685-.06727.033632-.104634.044843-.02242.00374-.04484-.022422-.06726-.037369z"/>
  <path d="M12.64046 7.8968613h-.127055c0-.00374 0-.014948.0037-.014948.04111-.00747.08221-.011211.123318-.018685z"/>
  <path d="M5.7869473 18.666668c.044843.02989.082212.06726.1195815.104633.00747.0075-.041106.05605-.067265.08595-.041106-.03363-.078475-.071-.1121076-.112108-.00374 0 .029895-.03737.059791-.07847z"/>
  <path d="M17.487247 7.1532141c-.01869.022422-.04111.044843-.06353.063528-.01495.00374-.02989 0-.04111-.014948-.02616-.037369-.05979-.074738-.06353-.1158445-.0037-.041106.02989-.078475.04484-.1158446.02616.014948.04858.033632.071.059791.01868.041106.03737.082212.05232.1233184z"/>
  <path d="M12.513405 6.207773c.071-.1681614.179372-.074738.295217-.052317-.108371.082212-.108371.082212-.302691.041106l.0075.011211z"/>
  <path d="M11.504436 13.715247c-.01121-.02616-.03737-.05232-.03363-.07847.0075-.04111.01869-.08221.03737-.119581.03737.01868.104634.04484.100897.05605-.01495.04858-.03737.09716-.06726.138266-.0037.0075-.02242.0037-.03737.0037z"/>
  <path d="M10.656155 13.431241c.03737.01495.08595.02242.108371.05232.02616.04484.04111.09716.05232.14574-.02616.0075-.05605.02242-.08221.01868-.08595-.02242-.112108-.08969-.108371-.171899 0-.01121.01495-.02242.02989-.04484z"/>
  <path d="m10.338517 14.948431-.153214.09342c-.02242-.03363-.06726-.08595-.05605-.100897.03363-.04111.07474-.07847.119581-.100896.0075-.0037.04858.05605.08969.10837z"/>
  <path d="M14.452867 6.8318389c-.02989.033632-.06726.063528-.104634.089686-.01121.00747-.04111-.026159-.06353-.041106.02616-.037369.05232-.071002.08221-.1008968.0075-.00374.04858.029895.08595.052317z"/>
  <path d="m8.3392644 16.439463.052317.175635c-.041106.01121-.089686.04111-.1195814.02989-.033632-.02242-.056054-.06353-.056054-.104633.00747-.0299.059791-.04858.1233184-.100897z"/>
  <path d="m12.461088 9.615845-.05232.089686c-.02616-.026158-.06353-.04858-.07847-.078475-.0075-.018685.01868-.052317.02989-.078475z"/>
  <path d="M6.5754376 19.787744c.00374.02242.00374.04858.00374.071-.014948.01121-.041106.0075-.052317-.0075-.00374-.0037-.00747-.01121-.00747-.01869.018685-.01495.037369-.02989.056054-.04484z"/>
  <path d="m11.343749 9.2085206-.05979.044843-.05605-.1008969c.02616-.00747.06353-.029895.07848-.022421.01495.00747.02616.052317.03737.078475z"/>
  <path d="M11.837022 11.682362c.0075.06727.01495.134529.01495.201794 0 .01495-.03737.03363-.05979.04484-.0037.0037-.03363-.01868-.03363-.02989 0-.071.0037-.142003.0037-.216742z"/>
  <path d="m11.272747 7.7922275-.149476.041106c-.01121-.052317-.02242-.1083707-.0299-.1606876 0-.00374.0299-.022422.03363-.022422.04111.041106.07848.078475.14574.1420029z"/>
  <path d="M5.7757365 18.50598c-.041106.01868-.082212.04858-.093423.03737-.033632-.02989-.063528-.06353-.089686-.100897.026159-.0075.063528-.03363.082212-.02242.037369.02242.071002.05232.1008968.08595z"/>
  <path d="m14.034332 12.979074.05979.104634c-.0299.0075-.05979.02616-.08595.01868-.02242-.01495-.03737-.04111-.03737-.071 0-.01495.03363-.0299.06353-.05232z"/>
  <path d="m10.600102 14.39163-.112108.03363c-.0037-.02242-.01868-.05232-.01121-.06353.02242-.02242.04484-.03737.071-.05232z"/>
  <path d="M9.3071269 14.739164c-.011211-.02616-.022422-.05232-.029895-.08221-.00374-.01121.011211-.02616.018685-.04111.014948.01495.044843.03363.044843.04858-.00374.02616-.014948.05232-.033633.07474z"/>
  <path d="M11.149429 14.851271c-.02242.0037-.04111.0037-.06353 0-.01121-.0075-.01495-.02242-.01495-.03363.01868-.01495.03737-.02989.05605-.04111.0037.01868.01121.04111.02242.07474z"/>
  <path d="M7.1210281 18.203289c-.014948.02242-.022422.05605-.044843.05979-.022422.0037-.052317-.0075-.078475-.01495.014948-.02242.026159-.05605.04858-.06353.022422-.0075.052317.01121.074738.01868z"/>
  <path d="M4.8340325 19.215995c-.037369.0075-.074739.01495-.1121077.01869-.011211-.01869-.018685-.04111-.018685-.06353.033632-.01868.067265-.03363.1046338-.04858.00747.02616.014948.05232.026159.09342z"/>
  <path d="m13.455109 5.7032887-.04858.037369c-.0037-.014948-.01495-.029895-.01121-.044843.0075-.029895.01868-.056054.03363-.082212.0075.029895.01495.059791.02616.089686z"/>
  <path d="m14.314601 6.0097162-.04111.067265-.04484-.063528.06726-.04858z"/>
  <path d="m17.188293 6.1741408.05232-.04858c.01869.018685.03737.037369.05232.059791.0037.00374-.02242.033632-.02616.029895-.02616-.011211-.05232-.026159-.07848-.041106z"/>
  <path d="m15.035827 6.6599405-.149477-.014948.071-.1083707c.02616.056054.04484.09716.06727.1382661z"/>
  <path d="M15.271253 6.7645743c.01121-.026158.02989-.04858.04858-.071001.01868-.014948.03737-.022422.05979-.022422.01121 0 .02989.018685.02989.029895 0 .022422-.01121.063528-.01868.063528-.04111 0-.08595-.00374-.127055-.011211z"/>
  <path d="m14.30339 7.2727955-.02616-.00374.02616-.033632z"/>
  <path d="M12.464825 7.5082216c-.02989.00747-.05979.029895-.08221.022422-.01495-.00374-.02242-.04858-.02989-.074738.02616-.00747.05979-.033632.071-.026158.02242.014948.02989.052317.04111.078475z"/>
  <path d="M16.642703 7.9417044v-.2503737c.07847.1083707.112107.1494768.142003.190583l-.149477.052317z"/>
  <path d="M14.422972 8.5807179c-.02242.063528-.0075.1532137-.198057.2316891.119581-.1233184.164424-.1718984.209268-.2167414z"/>
  <path d="M11.885602 8.95441h-.04484l.0037-.056054c.01495.00374.0299.011211.04111.018685.0075.011211 0 .026158 0 .037369z"/>
  <path d="m11.799653 9.3281021.04111-.014948c0 .018685 0 .033632-.0037.052317-.01121.00374-.02616.00374-.03737-.00374-.0037-.00374 0-.022422 0-.033632z"/>
  <path d="M16.369908 9.3281021c-.01121.026158-.02242.052317-.03363.078475-.02242-.011211-.05605-.014948-.05979-.029895 0-.026158.0075-.056054.01868-.078475z"/>
  <path d="M12.973046 9.6270558c-.02989.00374-.06353.022421-.08969.014948-.02616-.00747-.02989-.044843-.04484-.067265.0299-.00747.06353-.026158.08221-.014948.01868.011211.03737.041106.05232.067265z"/>
  <path d="M12.793674 11.215247c-.01121.02616-.01868.05232-.02989.07848-.01868-.01868-.03737-.03737-.05232-.05979-.0037-.0075.01121-.04111.01495-.04111.02616.0075.04858.01495.06726.02242z"/>
  <path d="m12.5433 12.23169.04111-.04858c.01495.02242.02616.04111.03363.06726.0037.0075-.01495.01868-.02242.0299z"/>
  <path d="M12.857202 8.2556058c.0075.018685.01868.029895.01495.041106-.0037.011211-.01495.018685-.02242.026158 0-.018685.0037-.041106.0075-.067265z"/>
  <path d="M14.990984 9.6756357c-.01495-.022422-.0299-.04858-.04484-.074738 0-.00374.01495-.018685.02616-.026158.0037.037369.0037.074738.0075.1121076l.01121-.011211z"/>
  <path d="m16.784706 5.8863978-.03363-.014948c.0037-.011211.01121-.026159.01868-.037369.01121.00374.02989.011211.02989.014948-.0037.014948-.0075.026159-.01495.037369z"/>
  <path d="M10.099354 11.435726c-.01121 0-.02989.0075-.03363.0037-.0037-.0037-.0075-.02242-.01495-.03363l.05232-.0075c0 .01121 0 .02616-.0037.03737z"/>
  <path d="M11.156903 11.805681c-.01121.02242-.02242.04484-.0299.071-.01121-.01121-.0299-.02242-.02616-.02989.0075-.02242.01495-.04858.02989-.071z"/>
  <path d="M13.694272 6.2974591c-.02989-.00747-.06353-.011211-.08221-.029895-.01121-.011211.0075-.04858.01121-.074738.01121.00747.01868.018685.02616.029895.01121.026159.02242.056054.03363.082212-.0037.00374.01121-.00747.01121-.00747z"/>
  <path d="M9.7966635 12.766069c-.026158.01121-.052317.01868-.078475.02616-.00747 0-.018685-.01868-.029895-.0299.026159-.01121.052317-.01868.078475-.02616.00747-.0037.018685.01868.029895.02989z"/>
  <path d="M11.422224 15.269806c.01495.02616.02616.05232.03363.07848 0 .0075-.02242.01868-.03363.02616-.01121-.02616-.02242-.05232-.02989-.07847-.0037-.0037.01868-.01495.02989-.02616z"/>
  <path d="M8.8736441 17.284007c-.011211.0075-.026158.01121-.041106.01121-.00374 0-.00747-.02242-.011211-.03363.011211-.0075.026158-.0075.041106-.01121.00374.0037.00747.02242.011211.03363z"/>
  <path d="m6.6165438 17.926757.063528.0299c.00374-.01121.00747-.02242.00747-.03363l-.071002.01121z"/>
  <path d="m6.1867979 18.072497-.018685.03737-.041106-.05605c.011211-.0075.026159-.01869.037369-.01495.011211.0037.014948.02242.022422.03363z"/>
  <path d="m7.7114616 18.334082-.037369.02242c-.011211-.02242-.018685-.04484-.022422-.071 0-.0075.022422-.01869.029895-.02616z"/>
</svg>
